<svg xmlns="http://www.w3.org/2000/svg" viewBox="0 0 120 120">
  <!-- 꼬리 (살짝 흔드는 느낌) -->
  <path d="M95 85 Q118 65 105 45 Q100 38 93 44" fill="none" stroke="#F5A623" stroke-width="4" stroke-linecap="round"/>
  <!-- 몸체 -->
  <ellipse cx="60" cy="78" rx="38" ry="32" fill="#F5A623"/>
  <!-- 머리 -->
  <circle cx="60" cy="48" r="28" fill="#F5A623"/>
  <!-- 귀 (쫑긋) -->
  <polygon points="36,26 26,0 48,20" fill="#F5A623" stroke="#E8961E" stroke-width="1"/>
  <polygon points="38,24 30,6 46,20" fill="#FFD4D4"/>
  <polygon points="84,26 94,0 72,20" fill="#F5A623" stroke="#E8961E" stroke-width="1"/>
  <polygon points="82,24 90,6 74,20" fill="#FFD4D4"/>
  <!-- 눈 (반짝) -->
  <ellipse cx="48" cy="44" rx="5" ry="6" fill="#2C3E50"/>
  <ellipse cx="72" cy="44" rx="5" ry="6" fill="#2C3E50"/>
  <circle cx="50" cy="41" r="2" fill="white"/>
  <circle cx="74" cy="41" r="2" fill="white"/>
  <!-- 볼터치 -->
  <ellipse cx="36" cy="56" rx="6" ry="4" fill="#FFB3C1" opacity="0.5"/>
  <ellipse cx="84" cy="56" rx="6" ry="4" fill="#FFB3C1" opacity="0.5"/>
  <!-- 코 -->
  <ellipse cx="60" cy="53" rx="3" ry="2" fill="#FF8A9E"/>
  <!-- 입 (크게 벌림) -->
  <ellipse cx="60" cy="59" rx="6" ry="5" fill="#2C3E50"/>
  <ellipse cx="60" cy="58" rx="4.5" ry="3" fill="#FF6B81"/>
  <!-- 수염 -->
  <line x1="26" y1="50" x2="40" y2="52" stroke="#2C3E50" stroke-width="1" opacity="0.4"/>
  <line x1="26" y1="56" x2="40" y2="55" stroke="#2C3E50" stroke-width="1" opacity="0.4"/>
  <line x1="80" y1="52" x2="94" y2="50" stroke="#2C3E50" stroke-width="1" opacity="0.4"/>
  <line x1="80" y1="55" x2="94" y2="56" stroke="#2C3E50" stroke-width="1" opacity="0.4"/>
  <!-- 앞발 -->
  <ellipse cx="45" cy="100" rx="10" ry="6" fill="#F5A623"/>
  <ellipse cx="75" cy="100" rx="10" ry="6" fill="#F5A623"/>
</svg>
